<svg xmlns="http://www.w3.org/2000/svg" viewBox="0 0 48 48">
  <path fill="#EA4335" d="M24 9.5c3.54 0 6.7 1.22 9.2 3.6l6.85-6.85C35.9 2.38 30.37 0 24 0 14.64 0 6.48 5.38 2.56 13.22l7.98 6.2C12.3 13.1 17.66 9.5 24 9.5z"/>
  <path fill="#4285F4" d="M46.5 24.5c0-1.64-.15-3.21-.43-4.73H24v9h12.65c-.55 2.95-2.21 5.45-4.72 7.14l7.3 5.67C43.98 37.7 46.5 31.65 46.5 24.5z"/>
  <path fill="#FBBC05" d="M10.54 28.42A14.5 14.5 0 0 1 9.5 24c0-1.53.27-3 .74-4.42l-7.98-6.2A23.96 23.96 0 0 0 0 24c0 3.84.92 7.47 2.56 10.62l7.98-6.2z"/>
  <path fill="#34A853" d="M24 48c6.48 0 11.92-2.14 15.9-5.82l-7.3-5.67c-2.03 1.36-4.64 2.17-8.6 2.17-6.34 0-11.7-3.6-13.46-8.92l-7.98 6.2C6.48 42.62 14.64 48 24 48z"/>
</svg>